<?xml version="1.0" encoding="us-ascii" standalone="no"?><svg xmlns="http://www.w3.org/2000/svg" xmlns:xlink="http://www.w3.org/1999/xlink" contentStyleType="text/css" height="440px" preserveAspectRatio="none" style="width:761px;height:440px;background:#FFFFFF;" version="1.1" viewBox="0 0 761 440" width="761px" zoomAndPan="magnify"><defs/><g><text fill="#000000" font-family="sans-serif" font-size="14" font-weight="bold" lengthAdjust="spacing" textLength="197" x="281.75" y="30.1074">UC03 - Editar uma Biblioteca</text><line style="stroke:#181818;stroke-width:0.5;stroke-dasharray:5.0,5.0;" x1="22" x2="22" y1="123.2422" y2="356.9883"/><line style="stroke:#181818;stroke-width:0.5;stroke-dasharray:5.0,5.0;" x1="430.5" x2="430.5" y1="123.2422" y2="356.9883"/><text fill="#000000" font-family="sans-serif" font-size="14" lengthAdjust="spacing" textLength="29" x="5" y="119.7285">User</text><ellipse cx="22.5" cy="53.1211" fill="#6495ED" rx="8" ry="8" style="stroke:#181818;stroke-width:0.5;"/><path d="M22.5,61.1211 L22.5,88.1211 M9.5,69.1211 L35.5,69.1211 M22.5,88.1211 L9.5,103.1211 M22.5,88.1211 L35.5,103.1211 " fill="none" style="stroke:#181818;stroke-width:0.5;"/><text fill="#000000" font-family="sans-serif" font-size="14" lengthAdjust="spacing" textLength="29" x="5" y="371.0957">User</text><ellipse cx="22.5" cy="383.1094" fill="#6495ED" rx="8" ry="8" style="stroke:#181818;stroke-width:0.5;"/><path d="M22.5,391.1094 L22.5,418.1094 M9.5,399.1094 L35.5,399.1094 M22.5,418.1094 L9.5,433.1094 M22.5,418.1094 L35.5,433.1094 " fill="none" style="stroke:#181818;stroke-width:0.5;"/><rect fill="#6495ED" height="32.6211" rx="2.5" ry="2.5" style="stroke:#181818;stroke-width:0.5;" width="60" x="400.5" y="89.6211"/><text fill="#000000" font-family="sans-serif" font-size="14" lengthAdjust="spacing" textLength="46" x="407.5" y="111.7285">System</text><rect fill="#6495ED" height="32.6211" rx="2.5" ry="2.5" style="stroke:#181818;stroke-width:0.5;" width="60" x="400.5" y="355.9883"/><text fill="#000000" font-family="sans-serif" font-size="14" lengthAdjust="spacing" textLength="46" x="407.5" y="378.0957">System</text><polygon fill="#181818" points="418.5,152.5332,428.5,156.5332,418.5,160.5332,422.5,156.5332" style="stroke:#181818;stroke-width:1.0;"/><line style="stroke:#181818;stroke-width:1.0;" x1="22.5" x2="424.5" y1="156.5332" y2="156.5332"/><text fill="#000000" font-family="sans-serif" font-size="13" font-weight="bold" lengthAdjust="spacing" textLength="7" x="29.5" y="151.2705">1</text><text fill="#000000" font-family="sans-serif" font-size="13" lengthAdjust="spacing" textLength="244" x="40.5" y="151.2705">Seleciona a Biblioteca que pretende editar</text><line style="stroke:#181818;stroke-width:1.0;" x1="430.5" x2="472.5" y1="187.8242" y2="187.8242"/><line style="stroke:#181818;stroke-width:1.0;" x1="472.5" x2="472.5" y1="187.8242" y2="200.8242"/><line style="stroke:#181818;stroke-width:1.0;" x1="431.5" x2="472.5" y1="200.8242" y2="200.8242"/><polygon fill="#181818" points="441.5,196.8242,431.5,200.8242,441.5,204.8242,437.5,200.8242" style="stroke:#181818;stroke-width:1.0;"/><text fill="#000000" font-family="sans-serif" font-size="13" font-weight="bold" lengthAdjust="spacing" textLength="7" x="437.5" y="182.5615">2</text><text fill="#000000" font-family="sans-serif" font-size="13" lengthAdjust="spacing" textLength="266" x="448.5" y="182.5615">Solicita &#224; API a Biblioteca que foi selecionada</text><polygon fill="#181818" points="33.5,228.1152,23.5,232.1152,33.5,236.1152,29.5,232.1152" style="stroke:#181818;stroke-width:1.0;"/><line style="stroke:#181818;stroke-width:1.0;stroke-dasharray:2.0,2.0;" x1="27.5" x2="429.5" y1="232.1152" y2="232.1152"/><text fill="#000000" font-family="sans-serif" font-size="13" font-weight="bold" lengthAdjust="spacing" textLength="7" x="39.5" y="226.8525">3</text><text fill="#000000" font-family="sans-serif" font-size="13" lengthAdjust="spacing" textLength="373" x="50.5" y="226.8525">retorna a Biblioteca com os seus atributos previamente definidos</text><polygon fill="#181818" points="418.5,259.4063,428.5,263.4063,418.5,267.4063,422.5,263.4063" style="stroke:#181818;stroke-width:1.0;"/><line style="stroke:#181818;stroke-width:1.0;" x1="22.5" x2="424.5" y1="263.4063" y2="263.4063"/><text fill="#000000" font-family="sans-serif" font-size="13" font-weight="bold" lengthAdjust="spacing" textLength="7" x="29.5" y="258.1436">4</text><text fill="#000000" font-family="sans-serif" font-size="13" lengthAdjust="spacing" textLength="181" x="40.5" y="258.1436">Edita os atributos que pretende</text><line style="stroke:#181818;stroke-width:1.0;stroke-dasharray:2.0,2.0;" x1="430.5" x2="472.5" y1="294.6973" y2="294.6973"/><line style="stroke:#181818;stroke-width:1.0;stroke-dasharray:2.0,2.0;" x1="472.5" x2="472.5" y1="294.6973" y2="307.6973"/><line style="stroke:#181818;stroke-width:1.0;stroke-dasharray:2.0,2.0;" x1="431.5" x2="472.5" y1="307.6973" y2="307.6973"/><polygon fill="#181818" points="441.5,303.6973,431.5,307.6973,441.5,311.6973,437.5,307.6973" style="stroke:#181818;stroke-width:1.0;"/><text fill="#000000" font-family="sans-serif" font-size="13" font-weight="bold" lengthAdjust="spacing" textLength="7" x="437.5" y="289.4346">5</text><text fill="#000000" font-family="sans-serif" font-size="13" lengthAdjust="spacing" textLength="306" x="448.5" y="289.4346">Solicita &#224; API para guardar os atributos da Biblioteca</text><polygon fill="#181818" points="33.5,334.9883,23.5,338.9883,33.5,342.9883,29.5,338.9883" style="stroke:#181818;stroke-width:1.0;"/><line style="stroke:#181818;stroke-width:1.0;stroke-dasharray:2.0,2.0;" x1="27.5" x2="429.5" y1="338.9883" y2="338.9883"/><text fill="#000000" font-family="sans-serif" font-size="13" font-weight="bold" lengthAdjust="spacing" textLength="7" x="39.5" y="333.7256">6</text><text fill="#000000" font-family="sans-serif" font-size="13" lengthAdjust="spacing" textLength="294" x="50.5" y="333.7256">Retorna a lista de todas as Bibliotecas atualizadas</text><!--SRC=[TL5BIWGn4Dtd50KkNBKj-05x8VYPXJjnc0DKTsh6WdpQf2BeQRoB5xEwxPdfSH022Q7UjqvVHVhSr7NlC4ZnxgoBlixqLYXqL5d6JK9lZB0uWjN3-GLKiB0icA1uX7jk7KUX3WqMYQ7ubf8ns4bCiCgK0FFlVN9zUNErU3Gz9k6EUvM3vKSMyiF8zDeEcH5ItKx_3Ip9KSSn8CmrGMr2dqWeM08QRPc9QWwEJXK5uViBxfwVZYdMaI5l5IpkA9HZCDA0IiJqLroRWfWLM3AW96wrW3pOUMVq58J0qfe3svZ7F3D7OuC3U8-RHvaR-2-4zeYmAPYihkA0oHwivIZBoowBuwnysfn4gplGiySDX0KTVseVsPWV]--></g></svg>