<?xml version="1.0" encoding="us-ascii" standalone="no"?><svg xmlns="http://www.w3.org/2000/svg" xmlns:xlink="http://www.w3.org/1999/xlink" contentStyleType="text/css" height="458px" preserveAspectRatio="none" style="width:931px;height:458px;background:#FFFFFF;" version="1.1" viewBox="0 0 931 458" width="931px" zoomAndPan="magnify"><defs/><g><text fill="#000000" font-family="sans-serif" font-size="14" font-weight="bold" lengthAdjust="spacing" textLength="155" x="387.75" y="30.1074">UC07 - Editar um Livro</text><line style="stroke:#181818;stroke-width:0.5;stroke-dasharray:5.0,5.0;" x1="22" x2="22" y1="123.2422" y2="375.2793"/><line style="stroke:#181818;stroke-width:0.5;stroke-dasharray:5.0,5.0;" x1="558.5" x2="558.5" y1="123.2422" y2="375.2793"/><text fill="#000000" font-family="sans-serif" font-size="14" lengthAdjust="spacing" textLength="29" x="5" y="119.7285">User</text><ellipse cx="22.5" cy="53.1211" fill="#6495ED" rx="8" ry="8" style="stroke:#181818;stroke-width:0.5;"/><path d="M22.5,61.1211 L22.5,88.1211 M9.5,69.1211 L35.5,69.1211 M22.5,88.1211 L9.5,103.1211 M22.5,88.1211 L35.5,103.1211 " fill="none" style="stroke:#181818;stroke-width:0.5;"/><text fill="#000000" font-family="sans-serif" font-size="14" lengthAdjust="spacing" textLength="29" x="5" y="389.3867">User</text><ellipse cx="22.5" cy="401.4004" fill="#6495ED" rx="8" ry="8" style="stroke:#181818;stroke-width:0.5;"/><path d="M22.5,409.4004 L22.5,436.4004 M9.5,417.4004 L35.5,417.4004 M22.5,436.4004 L9.5,451.4004 M22.5,436.4004 L35.5,451.4004 " fill="none" style="stroke:#181818;stroke-width:0.5;"/><rect fill="#6495ED" height="32.6211" rx="2.5" ry="2.5" style="stroke:#181818;stroke-width:0.5;" width="60" x="528.5" y="89.6211"/><text fill="#000000" font-family="sans-serif" font-size="14" lengthAdjust="spacing" textLength="46" x="535.5" y="111.7285">System</text><rect fill="#6495ED" height="32.6211" rx="2.5" ry="2.5" style="stroke:#181818;stroke-width:0.5;" width="60" x="528.5" y="374.2793"/><text fill="#000000" font-family="sans-serif" font-size="14" lengthAdjust="spacing" textLength="46" x="535.5" y="396.3867">System</text><polygon fill="#181818" points="546.5,152.5332,556.5,156.5332,546.5,160.5332,550.5,156.5332" style="stroke:#181818;stroke-width:1.0;"/><line style="stroke:#181818;stroke-width:1.0;" x1="22.5" x2="552.5" y1="156.5332" y2="156.5332"/><text fill="#000000" font-family="sans-serif" font-size="13" font-weight="bold" lengthAdjust="spacing" textLength="7" x="29.5" y="151.2705">1</text><text fill="#000000" font-family="sans-serif" font-size="13" lengthAdjust="spacing" textLength="147" x="40.5" y="151.2705">Seleciona uma Biblioteca</text><polygon fill="#181818" points="33.5,183.8242,23.5,187.8242,33.5,191.8242,29.5,187.8242" style="stroke:#181818;stroke-width:1.0;"/><line style="stroke:#181818;stroke-width:1.0;stroke-dasharray:2.0,2.0;" x1="27.5" x2="557.5" y1="187.8242" y2="187.8242"/><text fill="#000000" font-family="sans-serif" font-size="13" font-weight="bold" lengthAdjust="spacing" textLength="7" x="39.5" y="182.5615">2</text><text fill="#000000" font-family="sans-serif" font-size="13" lengthAdjust="spacing" textLength="275" x="50.5" y="182.5615">retorna lista de Livros da Biblioteca selecionada</text><polygon fill="#181818" points="546.5,215.1152,556.5,219.1152,546.5,223.1152,550.5,219.1152" style="stroke:#181818;stroke-width:1.0;"/><line style="stroke:#181818;stroke-width:1.0;" x1="22.5" x2="552.5" y1="219.1152" y2="219.1152"/><text fill="#000000" font-family="sans-serif" font-size="13" font-weight="bold" lengthAdjust="spacing" textLength="7" x="29.5" y="213.8525">3</text><text fill="#000000" font-family="sans-serif" font-size="13" lengthAdjust="spacing" textLength="109" x="40.5" y="213.8525">Seleciona um Livro</text><polygon fill="#181818" points="33.5,246.4063,23.5,250.4063,33.5,254.4063,29.5,250.4063" style="stroke:#181818;stroke-width:1.0;"/><line style="stroke:#181818;stroke-width:1.0;stroke-dasharray:2.0,2.0;" x1="27.5" x2="557.5" y1="250.4063" y2="250.4063"/><text fill="#000000" font-family="sans-serif" font-size="13" font-weight="bold" lengthAdjust="spacing" textLength="7" x="39.5" y="245.1436">4</text><text fill="#000000" font-family="sans-serif" font-size="13" lengthAdjust="spacing" textLength="252" x="50.5" y="245.1436">Retorna o Livro com os atributos do mesmo</text><polygon fill="#181818" points="546.5,277.6973,556.5,281.6973,546.5,285.6973,550.5,281.6973" style="stroke:#181818;stroke-width:1.0;"/><line style="stroke:#181818;stroke-width:1.0;" x1="22.5" x2="552.5" y1="281.6973" y2="281.6973"/><text fill="#000000" font-family="sans-serif" font-size="13" font-weight="bold" lengthAdjust="spacing" textLength="7" x="29.5" y="276.4346">5</text><text fill="#000000" font-family="sans-serif" font-size="13" lengthAdjust="spacing" textLength="247" x="40.5" y="276.4346">Edita os atributos que pretende (ex.:stock)</text><line style="stroke:#181818;stroke-width:1.0;stroke-dasharray:2.0,2.0;" x1="558.5" x2="600.5" y1="312.9883" y2="312.9883"/><line style="stroke:#181818;stroke-width:1.0;stroke-dasharray:2.0,2.0;" x1="600.5" x2="600.5" y1="312.9883" y2="325.9883"/><line style="stroke:#181818;stroke-width:1.0;stroke-dasharray:2.0,2.0;" x1="559.5" x2="600.5" y1="325.9883" y2="325.9883"/><polygon fill="#181818" points="569.5,321.9883,559.5,325.9883,569.5,329.9883,565.5,325.9883" style="stroke:#181818;stroke-width:1.0;"/><text fill="#000000" font-family="sans-serif" font-size="13" font-weight="bold" lengthAdjust="spacing" textLength="7" x="565.5" y="307.7256">6</text><text fill="#000000" font-family="sans-serif" font-size="13" lengthAdjust="spacing" textLength="348" x="576.5" y="307.7256">Solicita &#224; API para guardar os atributos do Livro selecionado</text><polygon fill="#181818" points="33.5,353.2793,23.5,357.2793,33.5,361.2793,29.5,357.2793" style="stroke:#181818;stroke-width:1.0;"/><line style="stroke:#181818;stroke-width:1.0;stroke-dasharray:2.0,2.0;" x1="27.5" x2="557.5" y1="357.2793" y2="357.2793"/><text fill="#000000" font-family="sans-serif" font-size="13" font-weight="bold" lengthAdjust="spacing" textLength="7" x="39.5" y="352.0166">7</text><text fill="#000000" font-family="sans-serif" font-size="13" lengthAdjust="spacing" textLength="501" x="50.5" y="352.0166">Retorna a lista de Livros da Biblioteca selecionada, com o Livro selecionado atualizado</text><!--SRC=[bP5DJiCm48NtFiL8B029D2pu4LaWyTC54Wj4rGDCdL4POSV17YFWDDo5Yp5fKcY9L8cLBUlDVEyzxp-9jAagozPX8zcxYGs-JFIIgR5Kr8pBYDuOON44yvlZSoXWMhDWXEpXdbzZC9WbDDalA1g3LaA4UQ88cFfpx-paudHwQrgCmfPR1S7iFGdvJZBSrYAp6YakX_SAPkJ8ScXGUGZNl70SX2oQOR1GRJTJGIH5gyvn4eIQUdS9wiqnIEjzDUva3Tb6bCU14de1Q5-W49J82-r1SG4y9Hz6srUrRMkrPcZLDpLgzu3U9bMIO9yFDx4_veBJzdJ3roTSFTo1recmp1Xh_Ok_3dfllrbt1Fb7OKTzsl5sXMTq_D61p3S0]--></g></svg>